# xmcd CD database file
#
# Track frame offsets:
#	150
#	22703
#	45880
#	76199
#	106823
#	134293
#	151181
#	174321
#	197897
#	223028
#	237077
#	253624
#	269698
#	285085
#	301339
#	316275
#	334725
#
# Disc length: 4647 seconds
#
# Revision: 0
# Processed by: cddbd v1.5.2PL0 Copyright (c) Steve Scherf et al.
# Submitted via: CDex 1.70beta1
#
DISCID=d4122511
DTITLE=Ken Colyer - Lonesome Road: 1957-1958 CD 2
DYEAR=1900
DGENRE=Jazz
TTITLE0=Swanee River
TTITLE1=Over The Rainbow
TTITLE2=All Of Me
TTITLE3=Lonesome Road
TTITLE4=Pretty Baby
TTITLE5=Oh You Beautiful Doll
TTITLE6=Under The Bamboo Tree
TTITLE7=Bluebells Goodbye
TTITLE8=Dinah
TTITLE9=The Isle Of Capri
TTITLE10=Panama
TTITLE11=Tiger Rag
TTITLE12=Gettysberg March
TTITLE13=Over In Gloryland
TTITLE14=Bugle Boy March
TTITLE15=Just A Closer Walk With Thee
TTITLE16=Jambalaya
EXTD=
EXTT0=
EXTT1=
EXTT2=
EXTT3=
EXTT4=
EXTT5=
EXTT6=
EXTT7=
EXTT8=
EXTT9=
EXTT10=
EXTT11=
EXTT12=
EXTT13=
EXTT14=
EXTT15=
EXTT16=
PLAYORDER=
